<svg width="86" height="24" viewBox="0 0 86 24" fill="none" xmlns="http://www.w3.org/2000/svg">
<path fill-rule="evenodd" clip-rule="evenodd" d="M71.1559 12.8145H70.9269V13.1435L71.024 13.1408C71.4356 13.1297 71.8358 13.1189 72.2351 13.1189C72.4549 13.1189 72.6718 13.1252 72.8853 13.1315C73.092 13.1375 73.2955 13.1435 73.4953 13.1435V12.8145H73.2914C72.9554 12.8145 72.6906 12.8145 72.6906 12.3968V3.67723C72.6906 3.57536 72.6678 3.49925 72.595 3.49925C72.5685 3.49925 72.5077 3.53514 72.4239 3.58459C72.3957 3.60119 72.3647 3.61947 72.3319 3.63828C72.079 3.79168 71.575 4.0176 71.0961 4.18179V4.38373L71.1413 4.3974C71.5636 4.5248 71.7322 4.57565 71.7322 5.36949V12.3968C71.7322 12.8145 71.4919 12.8145 71.1559 12.8145ZM70.4953 6.61684H70.1958C69.968 5.14091 68.972 4.54766 67.6303 4.54766C66.2493 4.54766 64.2453 5.51903 64.2453 8.547C64.2453 11.0986 65.9754 12.9287 67.821 12.9287C69.0084 12.9287 69.9925 12.0711 70.2328 10.745L70.5073 10.8199L70.2328 12.6632C69.7288 12.9922 68.3717 13.3319 67.5802 13.3319C64.7738 13.3319 63.0004 11.4258 63.0004 8.58655C63.0004 5.99902 65.1935 4.14257 67.5454 4.14257C68.5175 4.14257 69.452 4.47155 70.3757 4.81192L70.4953 6.61684ZM38.6847 4.80081C38.6847 5.1286 38.9604 5.43121 39.2736 5.43121C39.5965 5.43121 39.8613 5.14118 39.8613 4.80081C39.8613 4.45864 39.5845 4.19318 39.2736 4.19318C38.9723 4.19318 38.6847 4.48441 38.6847 4.80081ZM38.2166 12.8145H37.9894V13.1435L38.0803 13.141C38.4921 13.1298 38.8942 13.1189 39.2963 13.1189C39.5153 13.1189 39.7311 13.1252 39.9438 13.1314C40.1506 13.1375 40.3545 13.1435 40.5555 13.1435V12.8145H40.3516C40.0167 12.8145 39.7525 12.8145 39.7525 12.3968V7.55133C39.7525 7.45066 39.728 7.37575 39.6688 7.37575C39.6079 7.37575 39.5372 7.38834 39.4524 7.43748C39.404 7.47763 38.7331 7.71493 38.1682 7.8929V8.09544L38.2222 8.12575C38.6281 8.35307 38.7924 8.44509 38.7924 8.97813V12.3968C38.7924 12.8145 38.5532 12.8145 38.2166 12.8145ZM32.8066 12.7384C32.2195 12.7384 31.5589 12.6257 31.5589 11.6531V4.78761C31.6166 4.78395 31.6749 4.77868 31.7387 4.77292C31.915 4.75699 32.1333 4.73728 32.4946 4.73728C34.8095 4.73728 36.2486 6.44152 36.2486 8.80134C36.2486 10.6818 35.3984 12.7384 32.8066 12.7384ZM29.3907 4.66184C29.894 4.66856 30.3835 4.6751 30.3835 5.73322V11.8557C30.3487 12.7016 30.009 12.7375 29.3114 12.8112L29.281 12.8145V13.1434L29.3815 13.1412C29.886 13.1299 30.3818 13.1189 30.8886 13.1189C31.1641 13.1189 31.4402 13.1248 31.722 13.1308C32.0156 13.1371 32.3158 13.1434 32.6273 13.1434C36.8733 13.1434 37.5686 10.001 37.5686 8.751C37.5686 6.51523 35.8773 4.33339 32.7713 4.33339C32.2649 4.33339 31.8248 4.34119 31.4467 4.34789C31.162 4.35293 30.9124 4.35736 30.6961 4.35736C30.2275 4.35736 29.748 4.35736 29.281 4.33339V4.65998C29.3174 4.66087 29.3542 4.66136 29.3907 4.66184ZM41.6956 9.05292C41.6956 8.58671 41.5635 8.46027 41.0002 8.22177V7.98027L41.0644 7.95834C41.5561 7.79017 42.031 7.62777 42.5828 7.37564C42.6193 7.37564 42.654 7.40021 42.654 7.49968V8.32244C43.3391 7.8041 43.9274 7.37564 44.7309 7.37564C45.7509 7.37564 46.1102 8.15705 46.1102 9.14161V12.3967C46.1102 12.8144 46.375 12.8144 46.7093 12.8144H46.9257V13.1433C46.7165 13.1433 46.5077 13.1373 46.2977 13.1312C46.0853 13.125 45.8717 13.1188 45.6552 13.1188C45.2422 13.1188 44.8303 13.1302 44.4184 13.1417L44.359 13.1433V12.8144H44.5749C44.9109 12.8144 45.1495 12.8144 45.1495 12.3967V9.12962C45.1495 8.40873 44.7309 8.05638 44.047 8.05638C43.6626 8.05638 43.0515 8.38416 42.654 8.66281V12.3967C42.654 12.8144 42.92 12.8144 43.256 12.8144H43.4718V13.1433C43.2632 13.1433 43.0545 13.1373 42.8442 13.1312C42.631 13.125 42.4157 13.1188 42.1979 13.1188C41.7869 13.1188 41.3733 13.1303 40.9606 13.1418L40.9034 13.1433V12.8144H41.121C41.4564 12.8144 41.6956 12.8144 41.6956 12.3967V9.05292ZM50.2954 8.94026C50.2954 9.09127 50.2606 9.25486 49.9616 9.25486H47.8734C48.0174 8.34581 48.5214 7.77773 49.2521 7.77773C49.9241 7.77773 50.2954 8.29548 50.2954 8.94026ZM47.8386 10.3916C47.813 9.96197 47.813 9.77381 47.8386 9.65995H51.2077L51.317 9.58385C51.3278 9.50775 51.3278 9.43286 51.3278 9.35557C51.317 8.01806 50.272 7.37564 49.2999 7.37564C48.4616 7.37564 46.8785 8.10671 46.8785 10.581C46.8785 11.3888 47.2617 13.3321 49.1701 13.3321C50.153 13.3321 50.8364 12.6759 51.3882 11.9059L51.2202 11.7291C50.7777 12.1965 50.2606 12.5753 49.6006 12.5753C48.6416 12.5753 47.9087 11.5913 47.8386 10.3916ZM51.6034 12.8144H51.9286C52.264 12.8144 52.5021 12.8144 52.5021 12.3967V8.85157C52.5021 8.54293 52.2268 8.43038 52.0219 8.34662C51.967 8.32418 51.9172 8.30381 51.8791 8.28229V8.09533C52.3502 7.8842 52.707 7.69197 52.953 7.5594C53.1644 7.44551 53.2941 7.37564 53.3444 7.37564C53.415 7.37564 53.4508 7.41159 53.4508 7.53923V8.6748H53.4765C53.7754 8.18282 54.2794 7.37564 55.0107 7.37564C55.3108 7.37564 55.694 7.58837 55.694 8.04379C55.694 8.38416 55.4674 8.68858 55.1308 8.68858C54.9497 8.68858 54.8566 8.61685 54.7607 8.54302C54.659 8.46477 54.5543 8.38416 54.3387 8.38416C54.1348 8.38416 53.4634 8.6748 53.4634 9.43284V12.3967C53.4634 12.8144 53.7026 12.8144 54.0385 12.8144H54.71V13.1433L54.2944 13.1355C53.8279 13.1264 53.4338 13.1188 53.0317 13.1188C52.5397 13.1188 52.0363 13.1314 51.6034 13.1433V12.8144ZM57.7338 12.9288C56.8579 12.9288 56.3784 12.2211 56.2213 11.3888L56.006 11.4517L56.1376 12.9042C56.5573 13.1559 57.1205 13.3321 57.6017 13.3321C59.0288 13.3321 59.6643 12.4482 59.6643 11.6159C59.6643 10.5526 58.8634 10.1909 58.1211 9.8557C57.4799 9.56618 56.8824 9.29639 56.8824 8.61128C56.8824 8.06956 57.3369 7.77773 57.817 7.77773C58.5852 7.77773 59.0055 8.23315 59.1251 9.02775H59.4012L59.3164 7.74058C58.8489 7.4889 58.3335 7.37564 57.9502 7.37564C56.6307 7.37564 56.0903 8.28229 56.0903 8.9906C56.0903 10.0847 56.8487 10.4508 57.5483 10.7884C58.1472 11.0775 58.7031 11.3458 58.7031 12.0324C58.7031 12.4734 58.4405 12.9288 57.7338 12.9288ZM78.6298 12.4482C78.6298 12.6759 78.7608 12.6879 78.9652 12.6879C79.0354 12.6879 79.1147 12.685 79.1956 12.6821C79.28 12.679 79.3662 12.6759 79.4458 12.6759V12.942C78.9288 12.9923 77.9458 13.2566 77.7163 13.3321L77.6571 13.2949V12.2738C76.9384 12.8916 76.3849 13.3321 75.5329 13.3321C74.8854 13.3321 74.2146 12.8916 74.2146 11.8322V8.59985C74.2146 8.27087 74.1662 7.95447 73.4959 7.89274V7.65305C73.7281 7.64533 74.1111 7.62054 74.4406 7.59921C74.7252 7.58079 74.9698 7.56496 75.0426 7.56496C75.1759 7.56496 75.1759 7.65305 75.1759 7.9299V11.1862C75.1759 11.5643 75.1759 12.6501 76.2192 12.6501C76.6258 12.6501 77.1656 12.3217 77.6691 11.8825V8.4848C77.6691 8.25875 77.2046 8.12454 76.7981 8.00707C76.752 7.99375 76.7066 7.98065 76.6628 7.96765V7.74054C77.3605 7.69134 77.8882 7.63237 78.2063 7.59682C78.3802 7.57739 78.4915 7.56496 78.5335 7.56496C78.6298 7.56496 78.6298 7.65305 78.6298 7.79207V12.4482ZM82.2524 13.0038C81.4471 13.0038 81.016 12.1967 81.016 11.7167V8.65154C81.34 8.35971 81.7108 8.05649 82.1573 8.05649C83.0918 8.05649 84.0764 9.19205 84.0764 10.5541C84.0764 11.6777 83.5365 13.0038 82.2524 13.0038ZM82.8036 7.37575C82.1447 7.37575 81.4955 7.85515 81.016 8.2824V3.67723C81.016 3.57536 80.9932 3.49925 80.9215 3.49925C80.8928 3.49925 80.8297 3.53654 80.7435 3.58746C80.7167 3.60332 80.6876 3.62049 80.6567 3.63828C80.4038 3.79168 79.9021 4.0176 79.4209 4.18179V4.38373L79.4653 4.39714C79.8887 4.52474 80.0559 4.57512 80.0559 5.36949V10.7956C80.0559 11.5645 79.9955 12.2985 79.8896 13.0428L80.1402 13.1806L80.5001 12.8918C80.5471 12.9125 80.5977 12.937 80.6526 12.9636C80.9627 13.1139 81.4133 13.3322 82.1664 13.3322C83.8839 13.3322 85.0348 11.6777 85.0348 10.025C85.0348 8.65154 84.1954 7.37575 82.8036 7.37575ZM30.7496 20.7038C30.9261 20.7105 31.1016 20.7171 31.2582 20.7171H31.2867V20.4529H31.1671C30.9302 20.4469 30.7132 20.4259 30.7121 20.0897V16.4925C30.7132 16.1563 30.9302 16.1341 31.1671 16.1293H31.2867V15.8651H31.2582C31.1059 15.8651 30.9337 15.8715 30.7592 15.878C30.5802 15.8847 30.3986 15.8914 30.2343 15.8914C30.0657 15.8914 29.8772 15.8841 29.6991 15.8772C29.5398 15.871 29.3882 15.8651 29.2673 15.8651H29.2388V16.1293H29.359C29.5953 16.1341 29.8117 16.1563 29.8129 16.4925V20.0897C29.8117 20.4259 29.5953 20.4469 29.359 20.4529H29.2388V20.7171H29.2673C29.3883 20.7171 29.5378 20.7111 29.6955 20.7048C29.8718 20.6977 30.0586 20.6902 30.2274 20.6902C30.3905 20.6902 30.5707 20.697 30.7496 20.7038ZM36.1199 20.8214L35.8511 20.8112L32.5384 16.9263V19.6781C32.547 20.2761 32.633 20.4457 33.1239 20.4529H33.2645V20.7171H33.2349C33.0933 20.7171 32.9521 20.7104 32.8113 20.7036C32.6714 20.6969 32.5318 20.6902 32.3927 20.6902C32.2479 20.6902 32.1008 20.6968 31.953 20.7036C31.8039 20.7103 31.6539 20.7171 31.5048 20.7171H31.4764V20.4529H31.5971C32.0293 20.4493 32.1518 20.158 32.1575 19.6103V16.7178C32.1563 16.3529 31.871 16.1305 31.5908 16.1293H31.4764V15.8651H31.5048C31.6301 15.8651 31.7565 15.8717 31.8825 15.8783C32.0078 15.8849 32.1331 15.8914 32.256 15.8914C32.3353 15.8914 32.4139 15.887 32.4942 15.8825C32.6098 15.876 32.729 15.8692 32.8591 15.8753L35.727 19.2718V16.746C35.7236 16.1994 35.3779 16.1341 35.1865 16.1293H35.014V15.8651H35.0436C35.1976 15.8651 35.3501 15.8717 35.5022 15.8783C35.6539 15.8849 35.8053 15.8914 35.9576 15.8914C36.0895 15.8914 36.2223 15.8849 36.3555 15.8783C36.4898 15.8717 36.6245 15.8651 36.7594 15.8651H36.789V16.1293H36.6626C36.3927 16.1377 36.1171 16.1635 36.1091 16.9719V20.0981C36.1091 20.3372 36.1159 20.5769 36.1478 20.7866L36.1529 20.8214H36.1199ZM65.8855 20.7032C66.0619 20.7102 66.2369 20.7171 66.3934 20.7171H66.4196V20.4529H66.3022C66.0636 20.4481 65.8484 20.4259 65.8461 20.0897V16.4925C65.8484 16.1575 66.0636 16.1341 66.3022 16.1293H66.4196V15.8651H66.3934C66.2408 15.8651 66.0685 15.8715 65.8938 15.878C65.7146 15.8847 65.5324 15.8914 65.3672 15.8914C65.1991 15.8914 65.0104 15.8841 64.8323 15.8771C64.673 15.8709 64.5221 15.8651 64.4019 15.8651H64.3746V16.1293H64.493C64.7294 16.1341 64.9452 16.1575 64.9463 16.4925V20.0897C64.9452 20.4259 64.7294 20.4481 64.493 20.4529H64.3746V20.7171H64.4019C64.5219 20.7171 64.6711 20.7109 64.8287 20.7043C65.0053 20.6968 65.1927 20.689 65.3615 20.689C65.5256 20.689 65.7063 20.6961 65.8855 20.7032ZM84.2521 20.7036C84.5392 20.7104 84.8273 20.7171 85.115 20.7171H85.1367L85.1435 20.695C85.1755 20.5356 85.2094 20.3775 85.2433 20.2197C85.2927 19.9895 85.3421 19.7594 85.385 19.527L85.3918 19.4893H85.1458L85.139 19.5133C85.1002 19.6631 85.0433 19.8512 84.9425 19.9986C84.8292 20.1622 84.6008 20.3228 84.3366 20.357C84.1657 20.3756 84 20.384 83.8405 20.384C83.7158 20.384 83.5934 20.3792 83.4795 20.3708C83.2739 20.339 83.1156 20.2713 83.1122 20.0148V16.4721C83.1176 16.1399 83.2625 16.1362 83.4961 16.1302L83.529 16.1293H83.7192V15.8651H83.6936C83.5258 15.8651 83.3602 15.8717 83.1949 15.8783C83.0303 15.8849 82.8661 15.8914 82.7004 15.8914C82.5282 15.8914 82.3575 15.8849 82.1863 15.8783C82.0145 15.8717 81.8423 15.8651 81.668 15.8651H81.6412V16.1293H81.7591C81.9983 16.1341 82.2209 16.1575 82.2232 16.4913V20.0208C82.2209 20.4295 81.996 20.4469 81.7591 20.4529H81.6412V20.7171H81.668C81.9559 20.7171 82.2435 20.7104 82.531 20.7037C82.8185 20.6969 83.106 20.6902 83.3935 20.6902C83.6793 20.6902 83.9656 20.6969 84.2521 20.7036ZM79.4766 18.5767H78.3348L78.9077 16.7382L79.4766 18.5767ZM81.2599 20.7098L81.4402 20.7172L81.4686 20.7196V20.4529H81.402C81.1924 20.4505 81.0751 20.378 80.9982 20.1952C80.9222 20.0127 80.8508 19.7904 80.7811 19.5733L80.7568 19.4977L79.5557 15.9046C79.5404 15.8644 79.5259 15.8207 79.5121 15.779L79.4971 15.7339C79.4755 15.6961 79.4413 15.6907 79.4253 15.6931C79.3991 15.6931 79.3792 15.7009 79.3621 15.7081C79.2368 15.7914 78.9743 15.9292 78.7682 16.0041C78.719 16.2421 78.6229 16.5326 78.5436 16.7724L78.5102 16.8736L77.4658 20.0256C77.3712 20.3031 77.1668 20.4505 76.923 20.4529H76.8587V20.7196L76.8872 20.7172L77.0384 20.7094C77.2225 20.6998 77.4065 20.6902 77.591 20.6902C77.798 20.6902 78.0107 20.7001 78.2206 20.7099L78.3786 20.7172L78.4077 20.7196V20.4529H78.308C78.0922 20.4529 77.8479 20.4097 77.8479 20.2408C77.8464 20.1702 77.8787 20.0703 77.9192 19.9449C77.9415 19.8758 77.9667 19.798 77.9897 19.714L78.1907 19.0213H79.6315L79.8792 19.7985C79.9532 20.0172 80.0119 20.2048 80.0108 20.2833C80.0096 20.4151 79.7841 20.4529 79.6326 20.4529H79.5335V20.7196L79.5626 20.7172L79.7844 20.7091C80.0409 20.6996 80.2938 20.6902 80.5415 20.6902C80.7885 20.6902 81.0254 20.7001 81.2599 20.7098ZM70.554 18.3136C70.5506 19.3144 70.3364 20.4589 69.0938 20.4601C68.0619 20.4565 67.5312 19.3084 67.53 18.0841C67.5323 17.1697 67.8637 16.1246 68.9833 16.1234C70.0437 16.1246 70.554 17.3171 70.554 18.3136ZM68.9959 15.7609C67.6246 15.7632 66.5625 16.8808 66.5591 18.325C66.5625 19.8171 67.6337 20.8179 69.0295 20.8215C70.4332 20.8179 71.5227 19.7566 71.5238 18.1602C71.5215 16.6795 70.3974 15.7632 68.9959 15.7609ZM76.0029 20.8112L76.2728 20.8214H76.3047L76.299 20.7866C76.2688 20.5769 76.2632 20.3372 76.2632 20.0981V16.9719C76.2688 16.1635 76.5473 16.1377 76.8155 16.1293H76.9408V15.8651H76.9129C76.7772 15.8651 76.643 15.8717 76.509 15.8783C76.3755 15.8849 76.2422 15.8914 76.1077 15.8914C75.9578 15.8914 75.8076 15.8849 75.6567 15.8783C75.5043 15.8717 75.3513 15.8651 75.1971 15.8651H75.168V16.1293H75.3383C75.5308 16.1341 75.8776 16.1994 75.8788 16.746V19.2718L73.012 15.8753C72.8808 15.8692 72.7615 15.876 72.646 15.8825C72.5661 15.887 72.4879 15.8914 72.4089 15.8914C72.2864 15.8914 72.1616 15.8849 72.0363 15.8783C71.9101 15.8717 71.7833 15.8651 71.6578 15.8651H71.631V16.1293H71.742C72.0239 16.1305 72.3081 16.3517 72.3081 16.7178V19.6103C72.3047 20.158 72.1805 20.4493 71.75 20.4505H71.631V20.7171H71.6578C71.8061 20.7171 71.9555 20.7104 72.1045 20.7036C72.2526 20.6969 72.4009 20.6902 72.5467 20.6902C72.6859 20.6902 72.8254 20.6969 72.9654 20.7036C73.1059 20.7104 73.2472 20.7171 73.3884 20.7171H73.4175V20.4505H73.2757C72.7853 20.4445 72.6988 20.2773 72.6908 19.6781V16.9263L76.0029 20.8112ZM39.8571 20.7052C40.0308 20.7113 40.192 20.7171 40.3107 20.7171H40.3375V20.4528H40.186C39.8745 20.4456 39.6792 20.4097 39.6723 19.8907V16.2665H40.7145C41.1268 16.2665 41.153 16.641 41.1706 16.8981L41.1718 16.9395L41.403 16.8502L41.4218 16.8424V16.8208C41.4218 16.6362 41.4218 16.4499 41.4355 16.2665C41.4542 16.0825 41.4799 15.8974 41.5055 15.7128L41.5089 15.6834L41.325 15.6529L41.2959 15.6469L41.2937 15.6786C41.2823 15.8578 41.1496 15.8614 40.9679 15.865H37.5675L37.5636 15.8649C37.3988 15.8614 37.2807 15.8588 37.2361 15.687L37.2315 15.6649H37.0248V15.6948C37.0248 15.8914 37.0123 16.0825 36.9855 16.2731C36.9729 16.404 36.9539 16.5315 36.9351 16.6577C36.9252 16.7244 36.9152 16.7911 36.9064 16.8574L36.9024 16.8927H37.1547L37.1581 16.8687L37.1752 16.7874C37.2661 16.352 37.2819 16.2761 37.7367 16.2665H38.7794V19.9063C38.7714 20.4384 38.6268 20.4432 38.2663 20.4528H38.1148V20.7171H38.1421C38.2574 20.7171 38.4125 20.7117 38.5837 20.7057C38.7946 20.6983 39.0302 20.6901 39.2458 20.6901C39.4347 20.6901 39.6544 20.6979 39.8571 20.7052ZM45.1781 20.7171C44.9861 20.7171 44.7245 20.7112 44.441 20.7048C44.1057 20.6972 43.7396 20.689 43.4218 20.689C43.0949 20.689 42.7097 20.6977 42.3681 20.7054L42.3664 20.7055C42.095 20.7116 41.8513 20.7171 41.6866 20.7171H41.6575V20.4529H41.7777C42.0135 20.4481 42.2293 20.4259 42.2316 20.0897V16.4925C42.2293 16.1575 42.0135 16.1353 41.7777 16.1293H41.6575V15.8651H41.6866C41.8692 15.8651 42.1117 15.8706 42.3735 15.8767C42.681 15.8837 43.0162 15.8914 43.3113 15.8914C43.5993 15.8914 43.9235 15.8841 44.2308 15.8772C44.5074 15.871 44.7703 15.8651 44.9804 15.8651H45.0101V15.895C45.0044 15.9981 45.0021 16.1198 45.0021 16.251C45.0021 16.4877 45.0101 16.7472 45.0226 16.9425V16.9677L45.0009 16.9743L44.772 17.0378L44.7709 17.0012C44.7322 16.5566 44.6763 16.2324 44.0032 16.2264H43.1239V17.9642H43.8722C44.2492 17.9624 44.3147 17.7587 44.3597 17.3889L44.362 17.362H44.6131V17.3919C44.5995 17.6604 44.5921 17.9271 44.5921 18.1949C44.5921 18.455 44.5995 18.7157 44.6131 18.9781V19.0015L44.5898 19.0075L44.362 19.0542L44.3597 19.0225L44.3535 18.9636C44.3135 18.5821 44.2917 18.3738 43.8791 18.3681L43.1239 18.3669V19.9387C43.1251 20.3528 43.4593 20.3546 43.8793 20.3569L43.8922 20.357C44.6786 20.3522 44.993 20.3114 45.1894 19.5396L45.1957 19.5121L45.2236 19.5175L45.4326 19.575L45.4269 19.6031C45.3421 19.9657 45.2646 20.33 45.206 20.6926L45.2014 20.7171H45.1781ZM48.4132 17.1451C48.4075 17.9432 48.0812 18.1787 47.4354 18.1859H47.1444V16.1959C47.1621 16.1939 47.1799 16.1917 47.1985 16.1893C47.2671 16.1805 47.348 16.1701 47.4872 16.1701C48.055 16.1737 48.4098 16.5458 48.4132 17.1451ZM49.8338 20.7036C49.9402 20.7103 50.0472 20.7171 50.1569 20.7171H50.1843V20.4553L50.1603 20.4529C49.8426 20.4097 49.7298 20.3384 49.5476 20.0526L48.4513 18.325C48.9542 18.1098 49.3443 17.7221 49.3443 17.1019C49.342 16.106 48.584 15.8651 47.7628 15.8651C47.5938 15.8651 47.4326 15.8713 47.267 15.8777C47.0918 15.8845 46.9115 15.8914 46.7116 15.8914C46.4815 15.8914 46.25 15.8826 46.0545 15.8752C45.9117 15.8698 45.7881 15.8651 45.6985 15.8651H45.6717V16.1293H45.8175L45.8286 16.1297C46.0279 16.1366 46.247 16.1443 46.2514 16.6219V20.1113C46.2492 20.3426 46.0521 20.4505 45.8175 20.4529H45.6717V20.7171H45.6985C45.8649 20.7171 46.0253 20.7102 46.1836 20.7034C46.3379 20.6967 46.4903 20.6902 46.6444 20.6902C46.8286 20.6902 47.0154 20.6969 47.2027 20.7036C47.3911 20.7104 47.5801 20.7171 47.7674 20.7171H47.797V20.4529H47.6506L47.6333 20.4524C47.3413 20.4445 47.1511 20.4393 47.1444 19.9321V18.4921H47.5299C47.9519 19.2778 48.3813 20.0148 48.8807 20.7069C49.0152 20.713 49.1436 20.706 49.267 20.6993C49.3522 20.6947 49.435 20.6902 49.5157 20.6902C49.6229 20.6902 49.7281 20.6969 49.8338 20.7036ZM54.9656 20.8214L54.698 20.8112L51.3853 16.9263V19.6781C51.3938 20.2773 51.4792 20.4457 51.9718 20.4529H52.1102V20.7171H52.0818C51.9401 20.7171 51.799 20.7101 51.6584 20.703C51.5186 20.696 51.3792 20.689 51.2401 20.689C51.0941 20.689 50.9458 20.696 50.7973 20.703C50.6485 20.7101 50.4996 20.7171 50.3528 20.7171H50.3221V20.4529H50.4422C50.8733 20.4505 50.9975 20.158 51.002 19.6091V16.7178C51.0003 16.3517 50.7173 16.1305 50.4371 16.1293H50.3221V15.8651H50.3528C50.477 15.8651 50.6034 15.8717 50.7295 15.8783C50.8551 15.8849 50.9804 15.8914 51.1028 15.8914C51.1847 15.8914 51.2659 15.8867 51.3489 15.8818C51.4611 15.8752 51.5768 15.8684 51.7025 15.8729L54.5721 19.2718V16.746C54.5715 16.1994 54.223 16.1329 54.0334 16.1293H53.8608V15.8651H53.8893C54.0445 15.8651 54.1974 15.8717 54.3497 15.8783C54.5009 15.8849 54.6516 15.8914 54.8033 15.8914C54.9359 15.8914 55.0691 15.8849 55.2026 15.8783C55.3369 15.8717 55.4715 15.8651 55.6063 15.8651H55.6342V16.1293H55.5095C55.2407 16.1365 54.9628 16.1635 54.9559 16.9719V20.0981C54.9559 20.3372 54.9616 20.5745 54.9941 20.7866L54.9975 20.8214H54.9656ZM58.1695 18.578H57.0277L57.6018 16.7371L58.1695 18.578ZM59.9991 20.7114L60.1325 20.7173L60.1633 20.7197V20.4506H60.0961C59.8865 20.4506 59.7664 20.3781 59.6906 20.1941C59.6164 20.0158 59.5471 19.798 59.4791 19.5845L59.4514 19.4978L58.2487 15.9047C58.2396 15.8788 58.2303 15.8517 58.2211 15.8244C58.2106 15.7936 58.2 15.7626 58.1895 15.7328C58.1695 15.6962 58.1337 15.6908 58.1183 15.692C58.0952 15.692 58.0789 15.6987 58.0632 15.7052L58.0556 15.7082C57.9292 15.7915 57.6667 15.9293 57.4622 16.0042C57.4095 16.2618 57.3019 16.581 57.2176 16.8307L57.2031 16.8737L56.157 20.0257C56.063 20.3044 55.8614 20.4506 55.6183 20.4506H55.5522V20.7197L55.5807 20.7173L55.6923 20.7111C55.8894 20.7001 56.0871 20.6891 56.284 20.6891C56.5049 20.6891 56.7307 20.7003 56.9538 20.7114L57.0727 20.7173L57.1018 20.7197V20.4506H57.0027C56.7857 20.4506 56.5408 20.4099 56.5385 20.2421C56.5385 20.1687 56.5722 20.0644 56.6143 19.934C56.6358 19.8673 56.6595 19.7938 56.682 19.7141L56.8854 19.0214H58.3261L58.5739 19.7986C58.6462 20.0162 58.7031 20.2049 58.702 20.2834C58.702 20.4152 58.4782 20.4506 58.3284 20.4506H58.2271V20.7197L58.2567 20.7173L58.4363 20.7103C58.7077 20.6996 58.9731 20.6891 59.235 20.6891C59.4997 20.6891 59.7508 20.7003 59.9991 20.7114ZM62.9925 20.7171C62.8755 20.7171 62.7157 20.7114 62.543 20.7052C62.3402 20.698 62.1197 20.6901 61.9299 20.6901C61.7144 20.6901 61.4793 20.6983 61.2683 20.7057C61.0967 20.7116 60.941 20.7171 60.8251 20.7171H60.7983V20.4528H60.9498C61.3103 20.4432 61.4538 20.4384 61.4629 19.9063V16.2665H60.4224C59.9648 16.275 59.949 16.3519 59.8594 16.7879L59.8427 16.8687L59.8381 16.8927H59.5853L59.5899 16.8574C59.5982 16.7964 59.6072 16.7353 59.6163 16.674C59.6357 16.5428 59.6553 16.4103 59.6685 16.2755C59.6952 16.0825 59.7077 15.8914 59.7077 15.6948V15.6649H59.9139L59.9196 15.687C59.9653 15.8588 60.0839 15.8614 60.2476 15.8649L60.2516 15.865H63.6525C63.8331 15.8614 63.9657 15.8578 63.9766 15.6786L63.9777 15.6469L64.0085 15.6529L64.1947 15.6834L64.189 15.7128C64.1611 15.8974 64.1372 16.0825 64.1178 16.2665C64.1053 16.4498 64.1053 16.6361 64.1053 16.8207V16.8424L64.0853 16.8502L63.8541 16.9395V16.8981C63.8376 16.641 63.8108 16.2665 63.398 16.2665H62.3558V19.8907C62.3627 20.4097 62.5574 20.4456 62.8684 20.4528H63.021V20.7171H62.9925Z" fill="#1A1919"/>
<path fill-rule="evenodd" clip-rule="evenodd" d="M85.1685 16.4243H85.2482C85.3371 16.4243 85.3787 16.3542 85.3787 16.2409C85.3787 16.1246 85.3132 16.0851 85.2437 16.0851H85.1685V16.4243ZM84.9356 16.806V16.7694C85.0193 16.758 85.0358 16.7616 85.0358 16.7053V16.1702C85.0358 16.0941 85.0279 16.0689 84.9379 16.0731V16.036H85.2904C85.41 16.036 85.5222 16.0977 85.5222 16.2277C85.5222 16.3368 85.455 16.4153 85.3599 16.4464L85.4721 16.613C85.5256 16.6867 85.5848 16.758 85.6241 16.7826V16.806H85.4903C85.4265 16.806 85.3707 16.6634 85.2437 16.4734H85.1685V16.7125C85.1685 16.7616 85.1839 16.758 85.267 16.7694V16.806H84.9356ZM85.2773 17.0109C85.5848 17.0109 85.8211 16.7359 85.8211 16.4243C85.8211 16.1133 85.5894 15.8346 85.2773 15.8346C84.9675 15.8346 84.7323 16.1133 84.7323 16.4243C84.7323 16.7359 84.9675 17.0109 85.2773 17.0109ZM85.2773 15.6998C85.6702 15.6998 85.9647 16.0186 85.9647 16.4243C85.9647 16.8306 85.6702 17.1452 85.2773 17.1452C84.8855 17.1452 84.5899 16.8306 84.5899 16.4243C84.5899 16.0186 84.8855 15.6998 85.2773 15.6998Z" fill="#1A1919"/>
<path fill-rule="evenodd" clip-rule="evenodd" d="M18.4882 11.9789C18.483 9.01203 16.7205 6.48202 14.2376 5.48009V18.4777C16.7205 17.4746 18.483 14.9469 18.4882 11.9789ZM9.49949 18.4753V5.48129C7.01883 6.48622 5.25914 9.01323 5.25287 11.9789C5.25914 14.9445 7.01883 17.4716 9.49949 18.4753ZM11.8697 0.992348C6.10368 0.994745 1.4328 5.91154 1.43166 11.9789C1.4328 18.0456 6.10368 22.9618 11.8697 22.963C17.6362 22.9618 22.3088 18.0456 22.3105 11.9789C22.3088 5.91154 17.6362 0.994745 11.8697 0.992348ZM11.8446 23.9999C5.53476 24.0315 0.341675 18.6521 0.341675 12.1041C0.341675 4.94856 5.53476 -0.00119805 11.8446 2.17622e-07H14.8013C21.036 -0.00119805 26.7274 4.94616 26.7274 12.1041C26.7274 18.6497 21.036 23.9999 14.8013 23.9999H11.8446Z" fill="#184977"/>
</svg>
